%FSLAX34Y34*%
%MOMM*%
%LNSILK_TOP*%
G71*
G01*
%ADD10C, 0.25*%
%ADD11C, 0.00*%
%ADD12C, 0.15*%
%ADD13C, 0.20*%
%ADD14C, 0.17*%
%LPD*%
G54D10*
X232000Y909600D02*
X232000Y890400D01*
G54D10*
X238300Y909600D02*
X238300Y890400D01*
G54D10*
X239300Y900000D02*
X249000Y900000D01*
G54D10*
X232000Y899999D02*
X220800Y899999D01*
G54D10*
X432000Y909600D02*
X432000Y890400D01*
G54D10*
X438300Y909600D02*
X438300Y890400D01*
G54D10*
X439300Y900000D02*
X449000Y900000D01*
G54D10*
X432000Y899999D02*
X420800Y899999D01*
G54D10*
X632000Y909600D02*
X632000Y890400D01*
G54D10*
X638300Y909600D02*
X638300Y890400D01*
G54D10*
X639300Y900000D02*
X649000Y900000D01*
G54D10*
X632000Y899999D02*
X620800Y899999D01*
G54D10*
X352000Y509600D02*
X352000Y490400D01*
G54D10*
X358300Y509600D02*
X358300Y490400D01*
G54D10*
X359300Y500000D02*
X369000Y500000D01*
G54D10*
X352000Y499999D02*
X340800Y499999D01*
G54D10*
X552000Y509600D02*
X552000Y490400D01*
G54D10*
X558300Y509600D02*
X558300Y490400D01*
G54D10*
X559300Y500000D02*
X569000Y500000D01*
G54D10*
X552000Y499999D02*
X540800Y499999D01*
G54D10*
X752000Y509600D02*
X752000Y490400D01*
G54D10*
X758300Y509600D02*
X758300Y490400D01*
G54D10*
X759300Y500000D02*
X769000Y500000D01*
G54D10*
X752000Y499999D02*
X740800Y499999D01*
G54D11*
X200900Y688300D02*
X200900Y688300D01*
G54D12*
X199000Y695800D02*
X209000Y705800D01*
G54D12*
X190800Y705800D02*
X199800Y696800D01*
G54D13*
X190800Y705800D02*
X208800Y705800D01*
G54D13*
X190200Y695500D02*
X209200Y695300D01*
G54D13*
X199800Y678000D02*
X200000Y695000D01*
G54D13*
X200000Y705800D02*
X200000Y722800D01*
G54D11*
X318800Y711700D02*
X318800Y711700D01*
G54D12*
X316900Y704200D02*
X326900Y694200D01*
G54D12*
X308700Y694200D02*
X317700Y703200D01*
G54D13*
X308700Y694200D02*
X326700Y694200D01*
G54D13*
X308100Y704500D02*
X327100Y704700D01*
G54D13*
X317700Y722000D02*
X317900Y705000D01*
G54D13*
X317900Y694200D02*
X317900Y677200D01*
G54D11*
X436700Y688300D02*
X436700Y688300D01*
G54D12*
X434800Y695800D02*
X444800Y705800D01*
G54D12*
X426600Y705800D02*
X435600Y696800D01*
G54D13*
X426600Y705800D02*
X444600Y705800D01*
G54D13*
X426000Y695500D02*
X445000Y695300D01*
G54D13*
X435600Y678000D02*
X435800Y695000D01*
G54D13*
X435800Y705800D02*
X435800Y722800D01*
G54D11*
X554600Y711700D02*
X554600Y711700D01*
G54D12*
X552700Y704200D02*
X562700Y694200D01*
G54D12*
X544500Y694200D02*
X553500Y703200D01*
G54D13*
X544500Y694200D02*
X562500Y694200D01*
G54D13*
X543900Y704500D02*
X562900Y704700D01*
G54D13*
X553500Y722000D02*
X553700Y705000D01*
G54D13*
X553700Y694200D02*
X553700Y677200D01*
G54D11*
X672500Y688300D02*
X672500Y688300D01*
G54D12*
X670600Y695800D02*
X680600Y705800D01*
G54D12*
X662400Y705800D02*
X671400Y696800D01*
G54D13*
X662400Y705800D02*
X680400Y705800D01*
G54D13*
X661800Y695500D02*
X680800Y695300D01*
G54D13*
X671400Y678000D02*
X671600Y695000D01*
G54D13*
X671600Y705800D02*
X671600Y722800D01*
G54D11*
X788000Y711700D02*
X788000Y711700D01*
G54D12*
X789900Y704200D02*
X779900Y694200D01*
G54D12*
X798100Y694200D02*
X789100Y703200D01*
G54D13*
X798100Y694200D02*
X780100Y694200D01*
G54D13*
X798700Y704500D02*
X779700Y704700D01*
G54D13*
X789100Y722000D02*
X788900Y705000D01*
G54D13*
X788900Y694200D02*
X788900Y677200D01*
G54D10*
X990500Y868000D02*
X1009500Y868000D01*
X1009500Y830000D01*
X990500Y830000D01*
X990500Y868000D01*
G54D10*
X1000000Y868100D02*
X1000000Y910000D01*
G54D10*
X1000000Y790000D02*
X1000000Y829900D01*
G54D10*
X990500Y518000D02*
X1009500Y518000D01*
X1009500Y480000D01*
X990500Y480000D01*
X990500Y518000D01*
G54D10*
X1000000Y518100D02*
X1000000Y560000D01*
G54D10*
X1000000Y440000D02*
X1000000Y479900D01*
G54D10*
X1190500Y693000D02*
X1209500Y693000D01*
X1209500Y655000D01*
X1190500Y655000D01*
X1190500Y693000D01*
G54D10*
X1200000Y693100D02*
X1200000Y735000D01*
G54D10*
X1200000Y615000D02*
X1200000Y654900D01*
G54D14*
X235000Y922500D02*
X234000Y920833D01*
X232000Y920000D01*
X230000Y920000D01*
X228000Y920833D01*
X227000Y922500D01*
X227000Y930833D01*
X228000Y932500D01*
X230000Y933333D01*
X232000Y933333D01*
X234000Y932500D01*
X235000Y930833D01*
G54D14*
X238667Y928333D02*
X243667Y933333D01*
X243667Y920000D01*
G54D14*
X354700Y522500D02*
X353700Y520833D01*
X351700Y520000D01*
X349700Y520000D01*
X347700Y520833D01*
X346700Y522500D01*
X346700Y530833D01*
X347700Y532500D01*
X349700Y533333D01*
X351700Y533333D01*
X353700Y532500D01*
X354700Y530833D01*
G54D14*
X366367Y520000D02*
X358367Y520000D01*
X358367Y520833D01*
X359367Y522500D01*
X365367Y527500D01*
X366367Y529167D01*
X366367Y530833D01*
X365367Y532500D01*
X363367Y533333D01*
X361367Y533333D01*
X359367Y532500D01*
X358367Y530833D01*
G54D14*
X434000Y922500D02*
X433000Y920833D01*
X431000Y920000D01*
X429000Y920000D01*
X427000Y920833D01*
X426000Y922500D01*
X426000Y930833D01*
X427000Y932500D01*
X429000Y933333D01*
X431000Y933333D01*
X433000Y932500D01*
X434000Y930833D01*
G54D14*
X437667Y930833D02*
X438667Y932500D01*
X440667Y933333D01*
X442667Y933333D01*
X444667Y932500D01*
X445667Y930833D01*
X445667Y929167D01*
X444667Y927500D01*
X442667Y926667D01*
X444667Y925833D01*
X445667Y924167D01*
X445667Y922500D01*
X444667Y920833D01*
X442667Y920000D01*
X440667Y920000D01*
X438667Y920833D01*
X437667Y922500D01*
G54D14*
X555000Y522500D02*
X554000Y520833D01*
X552000Y520000D01*
X550000Y520000D01*
X548000Y520833D01*
X547000Y522500D01*
X547000Y530833D01*
X548000Y532500D01*
X550000Y533333D01*
X552000Y533333D01*
X554000Y532500D01*
X555000Y530833D01*
G54D14*
X564667Y520000D02*
X564667Y533333D01*
X558667Y525000D01*
X558667Y523333D01*
X566667Y523333D01*
G54D14*
X636000Y922500D02*
X635000Y920833D01*
X633000Y920000D01*
X631000Y920000D01*
X629000Y920833D01*
X628000Y922500D01*
X628000Y930833D01*
X629000Y932500D01*
X631000Y933333D01*
X633000Y933333D01*
X635000Y932500D01*
X636000Y930833D01*
G54D14*
X647667Y933333D02*
X639667Y933333D01*
X639667Y927500D01*
X640667Y927500D01*
X642667Y928333D01*
X644667Y928333D01*
X646667Y927500D01*
X647667Y925833D01*
X647667Y922500D01*
X646667Y920833D01*
X644667Y920000D01*
X642667Y920000D01*
X640667Y920833D01*
X639667Y922500D01*
G54D14*
X754100Y522500D02*
X753100Y520833D01*
X751100Y520000D01*
X749100Y520000D01*
X747100Y520833D01*
X746100Y522500D01*
X746100Y530833D01*
X747100Y532500D01*
X749100Y533333D01*
X751100Y533333D01*
X753100Y532500D01*
X754100Y530833D01*
G54D14*
X765767Y530833D02*
X764767Y532500D01*
X762767Y533333D01*
X760767Y533333D01*
X758767Y532500D01*
X757767Y530833D01*
X757767Y526667D01*
X757767Y525833D01*
X760767Y527500D01*
X762767Y527500D01*
X764767Y526667D01*
X765767Y525000D01*
X765767Y522500D01*
X764767Y520833D01*
X762767Y520000D01*
X760767Y520000D01*
X758767Y520833D01*
X757767Y522500D01*
X757767Y526667D01*
G54D14*
X215000Y708333D02*
X220000Y695000D01*
X225000Y708333D01*
G54D14*
X228667Y695000D02*
X228667Y708333D01*
X233667Y708333D01*
X235667Y707500D01*
X236667Y705833D01*
X236667Y697500D01*
X235667Y695833D01*
X233667Y695000D01*
X228667Y695000D01*
G54D14*
X240334Y703333D02*
X245334Y708333D01*
X245334Y695000D01*
G54D14*
X333000Y707333D02*
X338000Y694000D01*
X343000Y707333D01*
G54D14*
X346667Y694000D02*
X346667Y707333D01*
X351667Y707333D01*
X353667Y706500D01*
X354667Y704833D01*
X354667Y696500D01*
X353667Y694833D01*
X351667Y694000D01*
X346667Y694000D01*
G54D14*
X366334Y694000D02*
X358334Y694000D01*
X358334Y694833D01*
X359334Y696500D01*
X365334Y701500D01*
X366334Y703167D01*
X366334Y704833D01*
X365334Y706500D01*
X363334Y707333D01*
X361334Y707333D01*
X359334Y706500D01*
X358334Y704833D01*
G54D14*
X450000Y708333D02*
X455000Y695000D01*
X460000Y708333D01*
G54D14*
X463667Y695000D02*
X463667Y708333D01*
X468667Y708333D01*
X470667Y707500D01*
X471667Y705833D01*
X471667Y697500D01*
X470667Y695833D01*
X468667Y695000D01*
X463667Y695000D01*
G54D14*
X475334Y705833D02*
X476334Y707500D01*
X478334Y708333D01*
X480334Y708333D01*
X482334Y707500D01*
X483334Y705833D01*
X483334Y704167D01*
X482334Y702500D01*
X480334Y701667D01*
X482334Y700833D01*
X483334Y699167D01*
X483334Y697500D01*
X482334Y695833D01*
X480334Y695000D01*
X478334Y695000D01*
X476334Y695833D01*
X475334Y697500D01*
G54D14*
X686100Y708033D02*
X691100Y694700D01*
X696100Y708033D01*
G54D14*
X699767Y694700D02*
X699767Y708033D01*
X704767Y708033D01*
X706767Y707200D01*
X707767Y705533D01*
X707767Y697200D01*
X706767Y695533D01*
X704767Y694700D01*
X699767Y694700D01*
G54D14*
X719434Y708033D02*
X711434Y708033D01*
X711434Y702200D01*
X712434Y702200D01*
X714434Y703033D01*
X716434Y703033D01*
X718434Y702200D01*
X719434Y700533D01*
X719434Y697200D01*
X718434Y695533D01*
X716434Y694700D01*
X714434Y694700D01*
X712434Y695533D01*
X711434Y697200D01*
G54D14*
X803000Y707333D02*
X808000Y694000D01*
X813000Y707333D01*
G54D14*
X816667Y694000D02*
X816667Y707333D01*
X821667Y707333D01*
X823667Y706500D01*
X824667Y704833D01*
X824667Y696500D01*
X823667Y694833D01*
X821667Y694000D01*
X816667Y694000D01*
G54D14*
X836334Y704833D02*
X835334Y706500D01*
X833334Y707333D01*
X831334Y707333D01*
X829334Y706500D01*
X828334Y704833D01*
X828334Y700667D01*
X828334Y699833D01*
X831334Y701500D01*
X833334Y701500D01*
X835334Y700667D01*
X836334Y699000D01*
X836334Y696500D01*
X835334Y694833D01*
X833334Y694000D01*
X831334Y694000D01*
X829334Y694833D01*
X828334Y696500D01*
X828334Y700667D01*
G54D14*
X568200Y707333D02*
X573200Y694000D01*
X578200Y707333D01*
G54D14*
X581867Y694000D02*
X581867Y707333D01*
X586867Y707333D01*
X588867Y706500D01*
X589867Y704833D01*
X589867Y696500D01*
X588867Y694833D01*
X586867Y694000D01*
X581867Y694000D01*
G54D14*
X599534Y694000D02*
X599534Y707333D01*
X593534Y699000D01*
X593534Y697333D01*
X601534Y697333D01*
G54D14*
X1024000Y850667D02*
X1027000Y849000D01*
X1028000Y847333D01*
X1028000Y844000D01*
G54D14*
X1020000Y844000D02*
X1020000Y857333D01*
X1025000Y857333D01*
X1027000Y856500D01*
X1028000Y854833D01*
X1028000Y853167D01*
X1027000Y851500D01*
X1025000Y850667D01*
X1020000Y850667D01*
G54D14*
X1031667Y852333D02*
X1036667Y857333D01*
X1036667Y844000D01*
G54D14*
X1024000Y497667D02*
X1027000Y496000D01*
X1028000Y494333D01*
X1028000Y491000D01*
G54D14*
X1020000Y491000D02*
X1020000Y504333D01*
X1025000Y504333D01*
X1027000Y503500D01*
X1028000Y501833D01*
X1028000Y500167D01*
X1027000Y498500D01*
X1025000Y497667D01*
X1020000Y497667D01*
G54D14*
X1039667Y491000D02*
X1031667Y491000D01*
X1031667Y491833D01*
X1032667Y493500D01*
X1038667Y498500D01*
X1039667Y500167D01*
X1039667Y501833D01*
X1038667Y503500D01*
X1036667Y504333D01*
X1034667Y504333D01*
X1032667Y503500D01*
X1031667Y501833D01*
G54D14*
X1224000Y674967D02*
X1227000Y673300D01*
X1228000Y671633D01*
X1228000Y668300D01*
G54D14*
X1220000Y668300D02*
X1220000Y681633D01*
X1225000Y681633D01*
X1227000Y680800D01*
X1228000Y679133D01*
X1228000Y677467D01*
X1227000Y675800D01*
X1225000Y674967D01*
X1220000Y674967D01*
G54D14*
X1231667Y679133D02*
X1232667Y680800D01*
X1234667Y681633D01*
X1236667Y681633D01*
X1238667Y680800D01*
X1239667Y679133D01*
X1239667Y677467D01*
X1238667Y675800D01*
X1236667Y674967D01*
X1238667Y674133D01*
X1239667Y672467D01*
X1239667Y670800D01*
X1238667Y669133D01*
X1236667Y668300D01*
X1234667Y668300D01*
X1232667Y669133D01*
X1231667Y670800D01*
G54D14*
X65000Y816833D02*
X75000Y803500D01*
G54D14*
X65000Y803500D02*
X75000Y816833D01*
G54D14*
X78667Y811833D02*
X83667Y816833D01*
X83667Y803500D01*
G54D14*
X42000Y590333D02*
X52000Y577000D01*
G54D14*
X42000Y577000D02*
X52000Y590333D01*
G54D14*
X63667Y577000D02*
X55667Y577000D01*
X55667Y577833D01*
X56667Y579500D01*
X62667Y584500D01*
X63667Y586167D01*
X63667Y587833D01*
X62667Y589500D01*
X60667Y590333D01*
X58667Y590333D01*
X56667Y589500D01*
X55667Y587833D01*
G54D14*
X140000Y589333D02*
X150000Y576000D01*
G54D14*
X140000Y576000D02*
X150000Y589333D01*
G54D14*
X153667Y586833D02*
X154667Y588500D01*
X156667Y589333D01*
X158667Y589333D01*
X160667Y588500D01*
X161667Y586833D01*
X161667Y585167D01*
X160667Y583500D01*
X158667Y582667D01*
X160667Y581833D01*
X161667Y580167D01*
X161667Y578500D01*
X160667Y576833D01*
X158667Y576000D01*
X156667Y576000D01*
X154667Y576833D01*
X153667Y578500D01*
G54D14*
X1361000Y694333D02*
X1371000Y681000D01*
G54D14*
X1361000Y681000D02*
X1371000Y694333D01*
G54D14*
X1380667Y681000D02*
X1380667Y694333D01*
X1374667Y686000D01*
X1374667Y684333D01*
X1382667Y684333D01*
M02*
