%FSLAX34Y34*%
%MOMM*%
%LNCOPPER_BOTTOM*%
G71*
G01*
%ADD10C, 2.00*%
%ADD11C, 2.00*%
%ADD12C, 2.00*%
%ADD13C, 0.25*%
%LPD*%
X30000Y970000D02*
G54D10*
D03*
X30000Y380000D02*
G54D10*
D03*
X1370000Y970000D02*
G54D10*
D03*
X1370000Y380000D02*
G54D10*
D03*
X270000Y900000D02*
G54D11*
D03*
X200000Y900000D02*
G54D11*
D03*
X470000Y900000D02*
G54D11*
D03*
X400000Y900000D02*
G54D11*
D03*
X670000Y900000D02*
G54D11*
D03*
X600000Y900000D02*
G54D11*
D03*
X390000Y500000D02*
G54D11*
D03*
X320000Y500000D02*
G54D11*
D03*
X590000Y500000D02*
G54D11*
D03*
X520000Y500000D02*
G54D11*
D03*
X790000Y500000D02*
G54D11*
D03*
X720000Y500000D02*
G54D11*
D03*
X200000Y660000D02*
G54D11*
D03*
X200000Y740000D02*
G54D11*
D03*
X317900Y740000D02*
G54D11*
D03*
X317900Y660000D02*
G54D11*
D03*
X435800Y660000D02*
G54D11*
D03*
X435800Y740000D02*
G54D11*
D03*
X553700Y740000D02*
G54D11*
D03*
X553700Y660000D02*
G54D11*
D03*
X671600Y660000D02*
G54D11*
D03*
X671600Y740000D02*
G54D11*
D03*
X788900Y740000D02*
G54D11*
D03*
X788900Y660000D02*
G54D11*
D03*
X1000000Y950000D02*
G54D11*
D03*
X1000000Y750000D02*
G54D11*
D03*
X1000000Y600000D02*
G54D11*
D03*
X1000000Y400000D02*
G54D11*
D03*
X1200000Y775000D02*
G54D11*
D03*
X1200000Y575000D02*
G54D11*
D03*
X1370000Y665000D02*
G54D12*
D03*
X100000Y810000D02*
G54D12*
D03*
X50000Y560000D02*
G54D12*
D03*
X149300Y560000D02*
G54D12*
D03*
G54D13*
X270000Y900000D02*
X270100Y740100D01*
X200000Y740000D01*
G54D13*
X200000Y660000D02*
X270100Y659900D01*
X269900Y499200D01*
G54D13*
X390000Y500000D02*
X389900Y660000D01*
X317900Y660000D01*
G54D13*
X317900Y740000D02*
X317900Y900000D01*
X400000Y900000D01*
G54D13*
X470000Y900000D02*
X469900Y740000D01*
X435800Y740000D01*
G54D13*
X435800Y660000D02*
X435900Y499900D01*
X520000Y500000D01*
G54D13*
X553700Y740000D02*
X553900Y900000D01*
X600000Y900000D01*
G54D13*
X670000Y900000D02*
X670000Y741600D01*
X671600Y740000D01*
G54D13*
X671600Y660000D02*
X671600Y500000D01*
X720000Y500000D01*
G54D13*
X790000Y500000D02*
X790000Y658900D01*
X788900Y660000D01*
G54D13*
X788900Y740000D02*
X788700Y900000D01*
X670000Y900000D01*
G54D13*
X790000Y500000D02*
X900000Y500000D01*
X1000000Y400000D01*
G54D13*
X1000000Y600000D02*
X1000000Y750000D01*
G54D13*
X1000000Y950000D02*
X1025000Y950000D01*
X1200000Y775000D01*
G54D13*
X1200000Y575000D02*
X1280000Y575000D01*
X1370000Y665000D01*
G54D13*
X100000Y810000D02*
X200000Y809900D01*
X200000Y900000D01*
G54D13*
X50000Y560000D02*
X50100Y499200D01*
X150700Y499300D01*
X319300Y499300D01*
X320000Y500000D01*
G54D13*
X270000Y900000D02*
X317900Y900000D01*
G54D13*
X470000Y900000D02*
X553900Y900000D01*
G54D13*
X390000Y500000D02*
X435800Y500000D01*
X435900Y499900D01*
G54D13*
X590000Y500000D02*
X671600Y500000D01*
G54D13*
X149300Y560000D02*
X149300Y499300D01*
G54D13*
X553700Y660000D02*
X589800Y660000D01*
X590000Y500000D01*
M02*
